inDegrees=yes
name=ik_imu_orientations_sensors
DataType=double
version=3
OpenSimVersion=4.4-2022-07-23-0e9fedc
endheader
time	r_x	r_y	r_z	t_x	t_y	t_z	sternoclavicular_r2	sternoclavicular_r3	unrotscap_r3	unrotscap_r2	acromioclavicular_r2	acromioclavicular_r3	acromioclavicular_r1	unrothum_r1	unrothum_r3	unrothum_r2	elv_angle	shoulder_elv	shoulder1_r2	shoulder_rot	elbow_flexion	pro_sup	deviation	flexion	wrist_hand_r1	wrist_hand_r3
17.6833	4.260045092703781	-33.92192352251747	-8.790121207052584	0	0	0	-12.10982062940071	5.129148466223389	-5.129148466223389	12.10982062940071	-2.451992344754256	19.81613962658112	8.907218383191076	-8.907218383191076	-19.81613962658112	2.451992344754256	58.16733656556594	50.04046895623075	-58.16733656556593	11.82400658141262	10.11976334400795	-6.243656721729708e-15	0.13089969	0	9.374987811387696	0
17.7	4.222036361398508	-33.98386672349954	-8.790186545325971	0	0	0	-12.11331192030067	5.130627212268656	-5.130627212268656	12.11331192030067	-2.452699260143177	19.82185266809245	8.909786356032029	-8.909786356032029	-19.82185266809245	2.452699260143177	58.20654709070406	50.05489574579626	-58.20654709070406	11.80918689589418	10.23954129877025	-6.243656721729708e-15	0.13089969	0	9.374987811387696	0
17.7167	4.178256305296192	-34.04674850107929	-8.771466311030554	0	0	0	-12.10707914407125	5.127987302428884	-5.127987302428884	12.10707914407125	-2.45143724974114	19.81165354394328	8.905201919919556	-8.905201919919556	-19.81165354394328	2.45143724974114	58.20373810495944	50.02914052984679	-58.20373810495945	11.78333905558724	10.44657398872621	-6.243656721729708e-15	0.13089969	0	9.374987811387696	0
17.7333	4.141764657847925	-34.12868787667769	-8.739510591665651	0	0	0	-12.09829972418426	5.124268754530797	-5.124268754530797	12.09829972418426	-2.449659595801163	19.79728717010133	8.898744333750091	-8.898744333750091	-19.79728717010133	2.449659595801163	58.15957398586862	49.99286201658445	-58.1595739858686	11.68194774017019	10.72092141887581	-6.243656721729708e-15	0.13089969	0	9.374987811387696	0
17.75	4.087870136364482	-34.22013576465276	-8.63157072503258	0	0	0	-12.07055044402151	5.112515469148516	-5.112515469148516	12.07055044402151	-2.444040931031982	19.75187909783747	8.878333717775657	-8.878333717775657	-19.75187909783747	2.444040931031982	58.09737201119217	49.87819582663521	-58.09737201119217	11.57509675370629	11.11388398988269	-6.243656721729708e-15	0.13089969	0	9.374987811387696	0
17.7667	4.055812388930119	-34.32266943678717	-8.444762594563027	0	0	0	-12.02698343361761	5.094062539792272	-5.094062539792272	12.02698343361761	-2.435219497646351	19.68058737620946	8.846288579548904	-8.846288579548904	-19.68058737620946	2.435219497646351	57.95403711047786	49.69816726152672	-57.95403711047786	11.37808020567213	11.59230749610961	-6.243656721729708e-15	0.13089969	0	9.374987811387696	0
17.7833	3.990568410382751	-34.44955521705565	-8.278722889411611	0	0	0	-11.96720869049795	5.068744779820936	-5.068744779820936	11.96720869049795	-2.423116328076422	19.58277381711128	8.802322057908336	-8.802322057908336	-19.58277381711128	2.423116328076422	57.85540665765702	49.45116474439744	-57.85540665765703	11.08564016953168	12.19776324240883	-6.243656721729708e-15	0.13089969	0	9.374987811387696	0
17.8	3.911213303293884	-34.59281119716889	-8.178573332208098	0	0	0	-11.90210257949864	5.041168904042634	-5.041168904042634	11.90210257949864	-2.40993366495923	19.47623617088275	8.754434119143728	-8.754434119143728	-19.47623617088275	2.40993366495923	57.79336128119979	49.18213183086178	-57.7933612811998	10.73727179261108	12.96852904743671	-6.243656721729708e-15	0.13089969	0	9.374987811387696	0
17.8167	3.807362603265656	-34.74820971202341	-8.083828456315493	0	0	0	-11.80937179665673	5.001892521085273	-5.001892521085273	11.80937179665673	-2.391157567722958	19.32449435762945	8.686227218406335	-8.686227218406335	-19.32449435762945	2.391157567722958	57.74874139810264	48.79894763663667	-57.74874139810263	10.36141438866438	13.90933631085632	-6.243656721729708e-15	0.13089969	0	9.374987811387696	0
17.8333	3.684699859065176	-34.89123771765531	-8.007481592312995	0	0	0	-11.70149680006941	4.956201763953299	-4.956201763953299	11.70149680006941	-2.369315075260243	19.14797101677985	8.606881191566231	-8.606881191566231	-19.14797101677985	2.369315075260243	57.707551625915	48.35318418702985	-57.707551625915	10.0244639627991	15.02607156723806	-6.243656721729708e-15	0.13089969	0	9.374987811387696	0
17.85	3.571183095858412	-35.01278951240682	-7.93956527078141	0	0	0	-11.58725164789594	4.907812909569996	-4.907812909569996	11.58725164789594	-2.346182755870267	18.96102374840882	8.522849681044979	-8.522849681044979	-18.96102374840882	2.346182755870267	57.55246034005809	47.88109783945369	-57.55246034005809	9.644556753258366	16.34348466303185	-6.243656721729708e-15	0.13089969	0	9.374987811387696	0
17.8667	3.462111084032587	-35.10099697959579	-7.88731957246123	0	0	0	-11.46236806278529	4.854918117101181	-4.854918117101181	11.46236806278529	-2.320896370212884	18.75666807417099	8.430993211894998	-8.430993211894998	-18.75666807417099	2.320896370212884	57.27610542114624	47.3650511237245	-57.27610542114625	9.191830651623219	17.8788227669944	-6.243656721729708e-15	0.13089969	0	9.374987811387696	0
17.8833	3.346474973298118	-35.15483493165378	-7.898222718907329	0	0	0	-11.33274397312148	4.800015470643264	-4.800015470643264	11.33274397312148	-2.294650128812763	18.54455518345563	8.335649927325221	-8.335649927325221	-18.54455518345563	2.294650128812763	56.86620869569324	46.82941559011026	-56.86620869569323	8.6017085710345	19.62983538978082	-6.243656721729708e-15	0.13089969	0	9.374987811387696	0
17.9	3.223624745548707	-35.18246128465594	-7.916176984066367	0	0	0	-11.1927771540265	4.740732132148539	-4.740732132148539	11.1927771540265	-2.266309695090131	18.31551776703506	8.232699184929189	-8.232699184929189	-18.31551776703506	2.266309695090131	56.2547027178769	46.25104160091838	-56.2547027178769	7.971070461289624	21.55769715953762	-6.243656721729708e-15	0.13089969	0	9.374987811387696	0
17.9167	3.101010969749187	-35.20337672139396	-7.906609599159846	0	0	0	-11.03026296142296	4.671898790413632	-4.671898790413632	11.03026296142296	-2.233403876880872	18.04958451909626	8.113164020190807	-8.113164020190807	-18.04958451909626	2.233403876880872	55.52798504684834	45.57949685564111	-55.52798504684835	7.361561489386632	23.68100804135539	-6.243656721729708e-15	0.13089969	0	9.374987811387696	0
17.9333	2.957356701677891	-35.2063311257883	-7.894523645169627	0	0	0	-10.84075272631531	4.591631199217764	-4.591631199217764	10.84075272631531	-2.195031909206274	17.73947577393103	7.973772273474466	-7.973772273474466	-17.73947577393103	2.195031909206274	54.6966391452687	44.79639846574682	-54.6966391452687	6.773473091337909	25.97066737513922	-6.243656721729708e-15	0.13089969	0	9.374987811387696	0
17.95	2.794996870138756	-35.18110602474302	-7.862278200895749	0	0	0	-10.61972323053513	4.498013536829053	-4.498013536829053	10.61972323053513	-2.150277932396568	17.37778987584769	7.811196951486551	-7.811196951486551	-17.37778987584769	2.150277932396568	53.77146765979807	43.88305548896096	-53.77146765979807	6.181448599589588	28.4038279258512	-6.243656721729708e-15	0.13089969	0	9.374987811387696	0
